<?xml version="1.0" standalone="no"?>
<!DOCTYPE svg PUBLIC "-//W3C//DTD SVG 20010904//EN"
 "http://www.w3.org/TR/2001/REC-SVG-20010904/DTD/svg10.dtd">
<svg version="1.0" xmlns="http://www.w3.org/2000/svg"
 width="1024.000000pt" height="1024.000000pt" viewBox="0 0 1024.000000 1024.000000"
 preserveAspectRatio="xMidYMid meet">

<g transform="translate(0.000000,1024.000000) scale(0.100000,-0.100000)"
fill="#1f4cb6" stroke="none">
<path d="M7681 6611 c-199 -376 -357 -677 -513 -981 -55 -107 -138 -265 -184
-351 -46 -86 -84 -159 -84 -163 0 -3 21 4 48 15 65 28 327 129 335 129 3 0 -1
-16 -9 -37 -25 -58 -273 -565 -290 -591 l-15 -23 -52 28 c-78 42 -196 164
-240 249 -94 182 -97 404 -9 588 83 174 229 298 406 346 54 15 64 22 88 61 14
24 27 48 27 53 1 13 -92 -2 -175 -29 -201 -63 -378 -231 -460 -433 -55 -136
-66 -328 -28 -476 47 -184 185 -364 351 -457 24 -13 43 -27 43 -31 0 -7 -53
-125 -355 -788 -176 -387 -190 -419 -177 -405 20 20 614 1142 917 1730 54 105
125 239 157 299 32 60 57 110 55 111 -1 1 -87 -31 -191 -72 -104 -40 -191 -71
-193 -69 -2 2 52 119 121 261 l125 257 33 -7 c18 -4 71 -25 118 -47 69 -33
101 -56 171 -127 95 -95 145 -181 175 -301 22 -84 22 -235 0 -320 -63 -252
-284 -448 -535 -476 -73 -9 -82 -14 -110 -65 l-24 -42 99 6 c193 11 337 77
479 221 101 102 150 188 187 324 26 100 28 278 5 374 -61 248 -259 465 -492
538 -22 7 -44 16 -49 20 -5 5 53 147 127 317 173 394 307 706 304 709 -1 1
-85 -154 -186 -345z"/>
<path d="M3372 5463 c4 -536 3 -522 69 -657 80 -161 234 -283 419 -333 88 -23
262 -23 350 0 120 32 207 83 303 178 l87 86 0 -182 c0 -148 -4 -196 -20 -259
-50 -197 -181 -328 -395 -398 -24 -7 -87 -12 -155 -12 -92 1 -128 5 -180 23
-177 62 -312 201 -355 366 -8 33 -15 83 -15 112 0 52 -1 53 -47 83 l-48 29 -3
-77 c-11 -271 162 -515 433 -608 71 -25 95 -28 210 -28 109 -1 142 3 205 22
113 35 196 86 280 171 87 87 138 177 172 298 22 77 22 92 26 876 l3 798 -53
-3 -53 -3 -3 -455 c-2 -370 -5 -465 -18 -514 -76 -292 -351 -467 -651 -413
-229 42 -402 205 -448 424 -12 53 -15 165 -15 516 l0 447 -51 0 -50 0 3 -487z"/>
<path d="M8212 5408 c3 -533 4 -544 26 -602 61 -164 199 -287 369 -331 74 -19
213 -19 288 0 32 9 86 30 119 48 69 36 175 136 197 185 7 17 16 32 19 32 3 0
12 -15 19 -32 8 -18 44 -63 80 -99 105 -104 217 -149 376 -149 50 0 117 7 150
15 135 36 265 137 324 253 61 120 61 125 61 699 l0 523 -49 0 -49 0 -7 -197
c-4 -109 -5 -327 -1 -484 4 -189 3 -310 -4 -355 -28 -179 -149 -308 -321 -345
-30 -7 -90 -9 -136 -6 -73 4 -94 10 -170 48 -71 36 -96 55 -133 100 -88 111
-84 81 -88 697 l-3 542 -49 0 -50 0 0 -510 c0 -339 -4 -527 -11 -562 -26 -122
-106 -221 -225 -279 -67 -33 -73 -34 -189 -34 -118 0 -121 1 -197 37 -130 62
-213 166 -238 297 -6 32 -10 257 -10 552 l0 499 -50 0 -51 0 3 -542z"/>
<path d="M591 5929 c-258 -50 -463 -230 -555 -487 l-31 -87 -3 -777 -2 -778
50 0 50 0 2 496 3 496 38 -55 c80 -116 239 -222 397 -264 88 -24 281 -24 370
0 202 53 380 198 471 382 60 122 74 188 74 345 0 113 -4 147 -24 210 -64 208
-217 381 -415 470 -120 54 -296 74 -425 49z m283 -109 c282 -72 485 -329 486
-617 1 -289 -165 -526 -435 -619 -109 -38 -272 -40 -385 -5 -267 82 -440 325
-440 615 0 116 20 199 73 306 127 259 419 392 701 320z"/>
<path d="M2264 5930 c-226 -41 -432 -202 -529 -414 -70 -152 -88 -358 -46
-519 85 -324 375 -547 711 -547 210 0 386 74 528 224 38 41 73 83 77 95 15 49
20 11 17 -144 l-3 -165 56 0 56 0 -4 443 c-4 487 -3 481 -72 624 -84 179 -252
322 -450 383 -80 25 -256 35 -341 20z m312 -118 c107 -34 184 -81 269 -167
119 -119 170 -235 182 -415 25 -371 -255 -680 -617 -680 -301 0 -559 200 -625
484 -21 89 -21 243 0 321 62 236 247 418 476 470 82 19 232 12 315 -13z"/>
<path d="M5442 5920 c-175 -47 -330 -171 -410 -326 -76 -148 -75 -142 -80
-666 l-3 -468 50 0 51 0 0 414 c0 476 7 542 68 666 67 137 203 246 357 285 76
19 224 19 300 0 147 -39 286 -145 352 -271 62 -116 65 -149 64 -646 l-2 -448
56 0 57 0 -4 468 c-4 398 -7 476 -21 527 -60 212 -211 373 -425 453 -95 35
-302 42 -410 12z"/>
</g>
</svg>
